<?xml version="1.0" standalone="no"?>
<!DOCTYPE svg PUBLIC "-//W3C//DTD SVG 20010904//EN"
 "http://www.w3.org/TR/2001/REC-SVG-20010904/DTD/svg10.dtd">
<svg version="1.0" xmlns="http://www.w3.org/2000/svg"
 width="540.000000pt" height="540.000000pt" viewBox="0 0 540.000000 540.000000"
 preserveAspectRatio="xMidYMid meet">
<metadata>
Created by potrace 1.16, written by Peter Selinger 2001-2019
</metadata>
<g transform="translate(0.000000,540.000000) scale(0.100000,-0.100000)"
fill="#000000" stroke="none">
<path d="M2163 5074 c-149 -78 -162 -74 222 -72 187 0 314 4 283 7 -66 7 -91
27 -91 71 l0 30 -172 0 -173 0 -69 -36z"/>
<path d="M2960 5082 c36 -15 84 -41 108 -56 35 -22 53 -26 94 -24 l50 3 -83
50 c-77 47 -87 50 -158 53 l-76 3 65 -29z"/>
<path d="M2195 4967 c-22 -8 -54 -21 -71 -30 -49 -26 -121 -112 -140 -170 -21
-61 -24 -166 -5 -220 21 -63 82 -129 152 -167 59 -32 71 -35 149 -35 65 0 96
5 131 21 107 50 178 154 187 275 9 129 -55 242 -170 298 -75 37 -171 48 -233
28z m29 -183 c9 -8 16 -23 16 -31 0 -21 -29 -53 -48 -53 -22 0 -52 30 -52 51
0 23 26 49 50 49 10 0 26 -7 34 -16z m242 -45 c13 -22 4 -109 -15 -147 -27
-52 -79 -98 -130 -117 -53 -18 -79 -12 -87 20 -8 31 0 42 36 50 65 14 120 84
120 153 0 21 3 42 7 45 11 11 61 8 69 -4z"/>
<path d="M1940 4906 c0 -9 30 -14 35 -6 4 6 -3 10 -14 10 -12 0 -21 -2 -21 -4z"/>
<path d="M2580 4906 c0 -2 8 -10 17 -17 11 -9 14 -10 9 -2 -5 10 36 13 181 16
l188 2 -197 3 c-109 1 -198 0 -198 -2z"/>
<path d="M1909 4883 c-13 -16 -12 -17 4 -4 16 13 21 21 13 21 -2 0 -10 -8 -17
-17z"/>
<path d="M1939 4863 c-13 -16 -12 -17 4 -4 16 13 21 21 13 21 -2 0 -10 -8 -17
-17z"/>
<path d="M3353 4857 c0 -8 6 -14 14 -14 9 0 10 4 2 14 -6 7 -12 13 -14 13 -1
0 -2 -6 -2 -13z"/>
<path d="M1874 4839 c-3 -5 6 -9 20 -9 31 0 34 6 6 13 -11 3 -23 1 -26 -4z"/>
<path d="M2770 4589 c-47 -19 -90 -61 -116 -111 -22 -44 -25 -62 -22 -118 5
-86 34 -134 109 -175 116 -64 242 -28 302 85 25 48 28 63 25 122 -3 55 -9 75
-33 110 -56 79 -181 120 -265 87z m173 -64 c115 -78 99 -257 -26 -304 -40 -16
-113 -14 -146 4 -62 32 -109 118 -97 178 24 121 172 188 269 122z"/>
<path d="M2783 4504 c-52 -26 -76 -74 -71 -140 4 -43 11 -61 33 -84 122 -127
316 27 224 176 -36 59 -120 80 -186 48z m175 -121 c4 -38 -40 -92 -78 -95 -34
-4 -39 27 -6 36 25 6 61 57 50 69 -3 3 -3 11 1 17 12 19 30 5 33 -27z"/>
<path d="M2284 4240 c-31 -12 -64 -59 -64 -91 0 -15 12 -41 26 -58 22 -26 33
-31 70 -31 58 0 94 32 94 85 0 47 -14 71 -50 90 -32 17 -45 18 -76 5z m81 -32
c38 -33 37 -83 0 -116 -75 -64 -170 44 -100 113 30 31 66 32 100 3z"/>
<path d="M3177 4173 c-3 -5 39 -7 93 -5 l99 3 4 -78 3 -78 2 83 2 82 -99 0
c-55 0 -102 -3 -104 -7z"/>
<path d="M3442 4108 l2 -73 3 65 c2 35 9 68 16 72 8 5 6 8 -5 8 -16 0 -18 -9
-16 -72z"/>
<path d="M3532 4095 l3 -85 -28 0 c-16 0 -38 5 -49 11 -15 8 -19 8 -14 0 5 -8
-66 -11 -251 -12 -142 0 -490 -2 -773 -5 -283 -2 -586 -1 -672 3 l-157 6 -4
66 -3 66 -2 -80 c-1 -44 2 -86 7 -94 13 -21 2068 -12 2081 9 6 8 9 49 8 90 -2
75 -2 75 -5 14 l-4 -62 -45 -7 c-77 -11 -84 -5 -84 80 0 49 4 75 13 78 7 3 4
6 -6 6 -17 1 -18 -7 -15 -84z"/>
<path d="M3633 4173 c9 -2 23 -2 30 0 6 3 -1 5 -18 5 -16 0 -22 -2 -12 -5z"/>
<path d="M1648 4163 c34 -2 88 -2 120 0 31 2 3 3 -63 3 -66 0 -92 -1 -57 -3z"/>
<path d="M1923 4163 c9 -2 23 -2 30 0 6 3 -1 5 -18 5 -16 0 -22 -2 -12 -5z"/>
<path d="M2998 4053 c7 -3 16 -2 19 1 4 3 -2 6 -13 5 -11 0 -14 -3 -6 -6z"/>
<path d="M2037 3910 c-416 -5 -418 -5 -403 -25 14 -20 24 -20 993 -16 865 3
980 5 996 19 9 8 17 19 17 24 0 8 -817 7 -1603 -2z"/>
<path d="M3118 3695 c-3 -3 -74 -6 -159 -6 -139 -1 -341 -14 -261 -18 17 0 32
-6 32 -12 0 -6 -7 -9 -15 -5 -20 7 -19 3 11 -41 25 -37 44 -59 30 -35 -6 9 20
12 116 13 68 0 146 1 173 1 28 1 53 6 57 12 5 8 8 7 8 -1 0 -7 5 -13 11 -13 5
0 7 6 3 13 -5 8 -2 8 9 -2 9 -7 17 -9 17 -4 0 5 53 9 120 8 66 0 120 1 120 3
0 1 -21 12 -46 22 -40 17 -69 20 -225 20 -113 0 -179 4 -179 10 0 11 50 14
200 12 89 -1 93 0 65 13 -30 14 -77 19 -87 10z"/>
<path d="M2105 3680 c33 -7 372 -14 365 -7 -3 2 -93 6 -200 9 -107 3 -181 2
-165 -2z"/>
<path d="M1950 3636 c-69 -29 -140 -65 -140 -71 0 -3 22 6 50 20 27 14 58 25
70 25 17 0 20 -6 20 -51 0 -31 4 -48 10 -44 6 3 10 24 10 45 0 21 5 40 10 42
6 2 43 1 83 -3 44 -3 86 -1 107 6 19 7 63 18 98 25 34 8 62 18 62 22 0 4 -73
8 -162 8 -147 -1 -168 -3 -218 -24z"/>
<path d="M3427 3579 c7 -7 15 -10 18 -7 3 3 -2 9 -12 12 -14 6 -15 5 -6 -5z"/>
<path d="M3460 3566 c0 -3 14 -12 30 -21 17 -9 30 -13 30 -11 0 3 -13 12 -30
21 -16 9 -30 13 -30 11z"/>
<path d="M1754 3534 c-18 -14 -18 -15 4 -4 12 6 22 13 22 15 0 8 -5 6 -26 -11z"/>
<path d="M1644 3467 c-30 -21 -54 -41 -54 -43 0 -3 20 9 44 26 43 29 48 30
158 30 157 0 176 18 24 22 l-118 3 -54 -38z"/>
<path d="M3179 3452 c-357 -2 -469 -5 -477 -15 -8 -9 90 -11 479 -9 375 3 493
1 504 -8 8 -7 15 -10 15 -7 0 3 -12 14 -27 24 -26 17 -58 18 -494 15z"/>
<path d="M1778 3423 c7 -3 16 -2 19 1 4 3 -2 6 -13 5 -11 0 -14 -3 -6 -6z"/>
<path d="M2820 3271 l0 -150 -42 -3 c-24 -2 2 -4 57 -4 55 0 81 2 58 4 l-43 3
0 150 c0 126 -2 149 -15 149 -13 0 -15 -23 -15 -149z"/>
<path d="M2668 3103 c7 -3 16 -2 19 1 4 3 -2 6 -13 5 -11 0 -14 -3 -6 -6z"/>
<path d="M2969 3106 c-2 -2 -86 -6 -186 -8 -100 -2 -174 -6 -165 -11 10 -4 0
-5 -23 -2 -30 3 -36 2 -25 -6 11 -8 6 -9 -20 -5 -20 3 -29 2 -22 -2 16 -11
-63 -36 -80 -26 -6 4 -8 3 -4 -4 8 -13 -29 -26 -45 -16 -7 4 -9 3 -6 -3 3 -5
-10 -17 -29 -26 -41 -20 -48 -21 -38 -5 4 7 3 8 -5 4 -6 -4 -8 -12 -5 -18 5
-8 1 -9 -10 -5 -11 5 -15 3 -10 -5 5 -8 2 -9 -10 -5 -9 4 -15 3 -12 -2 3 -5
-12 -20 -34 -35 -44 -29 -55 -32 -44 -13 4 7 3 9 -2 4 -5 -5 -9 -12 -9 -17 0
-5 -28 -34 -63 -65 -48 -44 -60 -60 -52 -70 9 -10 -6 -36 -59 -106 -116 -153
-179 -299 -207 -484 -75 -480 208 -955 668 -1125 131 -47 177 -54 358 -55 210
0 283 16 455 100 329 161 543 474 580 847 5 51 10 68 23 70 15 3 17 18 17 105
0 56 -2 97 -4 90 -2 -6 -15 31 -27 83 -15 60 -45 137 -81 210 -72 142 -68 134
-53 125 9 -5 11 -4 6 4 -4 6 -11 9 -16 6 -4 -3 -20 11 -34 29 -30 40 -34 54
-8 35 15 -13 16 -12 3 4 -8 9 -16 15 -19 12 -6 -5 -197 175 -197 187 0 4 -7
13 -15 20 -12 11 -12 11 -1 -4 7 -10 11 -18 9 -18 -3 0 -42 22 -87 50 -77 46
-224 110 -253 110 -9 0 -9 3 2 10 11 7 5 8 -20 4 -28 -5 -32 -3 -20 6 13 10
12 11 -4 6 -10 -4 -42 -3 -70 1 -43 6 -47 8 -26 14 22 6 22 7 4 8 -11 1 -23
-1 -25 -3z m59 -42 c464 -83 816 -476 858 -956 l7 -78 -140 0 -140 0 -6 68
c-18 190 -101 358 -245 494 -124 117 -267 184 -440 208 -209 28 -449 -45 -600
-184 l-43 -40 -95 95 c-51 51 -94 99 -94 106 0 24 164 143 265 193 214 107
433 137 673 94z m-68 -288 c41 -8 111 -28 155 -45 84 -33 191 -100 188 -118
-1 -5 24 -34 55 -64 l57 -54 -55 58 c-30 31 -49 57 -44 57 15 0 102 -94 141
-150 74 -109 119 -235 131 -365 l7 -80 129 -3 129 -3 -7 -72 c-21 -230 -116
-439 -273 -607 -203 -215 -447 -320 -748 -321 -268 -1 -506 95 -697 279 -145
139 -235 292 -286 482 -35 132 -37 361 -5 490 42 165 123 325 218 427 l45 48
84 -87 c46 -49 88 -88 93 -88 5 0 20 12 34 26 13 14 55 46 92 71 169 112 363
154 557 119z"/>
<path d="M3740 2223 c-112 -5 -130 -11 -130 -38 0 -19 6 -25 23 -26 16 -1 18
-2 5 -6 -11 -3 -18 -14 -18 -30 l0 -26 118 6 c64 4 120 7 125 7 4 0 7 11 7 25
0 25 -2 25 -82 27 l-83 2 75 5 c72 6 75 7 75 31 0 28 -4 29 -115 23z"/>
<path d="M3630 2065 l0 -25 119 0 c109 0 119 2 124 19 3 11 2 22 -1 25 -3 3
-59 6 -124 6 l-118 0 0 -25z"/>
<path d="M2732 2725 c0 -16 2 -22 5 -12 2 9 2 23 0 30 -3 6 -5 -1 -5 -18z"/>
<path d="M2932 2730 c0 -14 2 -19 5 -12 2 6 2 18 0 25 -3 6 -5 1 -5 -13z"/>
<path d="M2409 2643 c-13 -16 -12 -17 4 -4 9 7 17 15 17 17 0 8 -8 3 -21 -13z"/>
<path d="M3260 2636 c0 -2 8 -10 18 -17 15 -13 16 -12 3 4 -13 16 -21 21 -21
13z"/>
<path d="M2743 2580 c0 -30 2 -43 4 -27 2 15 2 39 0 55 -2 15 -4 2 -4 -28z"/>
<path d="M2923 2585 c0 -27 2 -38 4 -22 2 15 2 37 0 50 -2 12 -4 0 -4 -28z"/>
<path d="M2294 2548 l-29 -33 33 29 c30 28 37 36 29 36 -2 0 -16 -15 -33 -32z"/>
<path d="M2239 2483 c-13 -16 -12 -17 4 -4 9 7 17 15 17 17 0 8 -8 3 -21 -13z"/>
<path d="M2158 2123 c7 -3 16 -2 19 1 4 3 -2 6 -13 5 -11 0 -14 -3 -6 -6z"/>
<path d="M2198 2123 c7 -3 16 -2 19 1 4 3 -2 6 -13 5 -11 0 -14 -3 -6 -6z"/>
<path d="M3538 2123 c7 -3 16 -2 19 1 4 3 -2 6 -13 5 -11 0 -14 -3 -6 -6z"/>
<path d="M2333 2113 c9 -2 25 -2 35 0 9 3 1 5 -18 5 -19 0 -27 -2 -17 -5z"/>
<path d="M3358 2113 c18 -2 45 -2 60 0 15 2 0 4 -33 4 -33 0 -45 -2 -27 -4z"/>
<path d="M2343 1943 c9 -2 23 -2 30 0 6 3 -1 5 -18 5 -16 0 -22 -2 -12 -5z"/>
<path d="M2750 1890 c0 -33 3 -60 8 -61 65 -9 62 -11 62 58 l0 63 -35 0 -35 0
0 -60z"/>
<path d="M2163 1933 c15 -2 39 -2 55 0 15 2 2 4 -28 4 -30 0 -43 -2 -27 -4z"/>
<path d="M3353 1933 c15 -2 39 -2 55 0 15 2 2 4 -28 4 -30 0 -43 -2 -27 -4z"/>
<path d="M3503 1923 c9 -2 25 -2 35 0 9 3 1 5 -18 5 -19 0 -27 -2 -17 -5z"/>
<path d="M2741 1564 c0 -11 3 -14 6 -6 3 7 2 16 -1 19 -3 4 -6 -2 -5 -13z"/>
<path d="M2842 1573 c64 -4 67 -5 71 -31 4 -25 4 -24 6 6 l1 32 -72 -2 -73 -2
67 -3z"/>
<path d="M3409 1563 c-13 -16 -12 -17 4 -4 9 7 17 15 17 17 0 8 -8 3 -21 -13z"/>
<path d="M2255 1550 c10 -11 20 -20 23 -20 3 0 -3 9 -13 20 -10 11 -20 20 -23
20 -3 0 3 -9 13 -20z"/>
<path d="M2345 1460 c10 -11 20 -20 23 -20 3 0 -3 9 -13 20 -10 11 -20 20 -23
20 -3 0 3 -9 13 -20z"/>
<path d="M2733 1420 c0 -25 2 -35 4 -22 2 12 2 32 0 45 -2 12 -4 2 -4 -23z"/>
<path d="M3289 1443 c-13 -16 -12 -17 4 -4 16 13 21 21 13 21 -2 0 -10 -8 -17
-17z"/>
<path d="M2923 1360 c0 -30 2 -43 4 -27 2 15 2 39 0 55 -2 15 -4 2 -4 -28z"/>
<path d="M2510 1350 c8 -5 20 -10 25 -10 6 0 3 5 -5 10 -8 5 -19 10 -25 10 -5
0 -3 -5 5 -10z"/>
<path d="M2638 1303 c7 -3 16 -2 19 1 4 3 -2 6 -13 5 -11 0 -14 -3 -6 -6z"/>
<path d="M2678 1293 c7 -3 16 -2 19 1 4 3 -2 6 -13 5 -11 0 -14 -3 -6 -6z"/>
<path d="M1110 2878 c-12 -25 -15 -35 -6 -24 18 23 22 21 31 -17 6 -24 4 -27
-19 -28 -45 -2 -49 -4 -54 -17 -3 -9 3 -11 20 -8 105 25 112 25 125 8 12 -15
13 -14 11 8 -2 20 -8 25 -29 23 -22 -1 -29 5 -43 39 -8 22 -13 45 -10 49 3 5
3 9 0 9 -3 0 -15 -19 -26 -42z"/>
<path d="M3490 2896 c0 -2 8 -10 18 -17 15 -13 16 -12 3 4 -13 16 -21 21 -21
13z"/>
<path d="M4166 2855 c8 -35 10 -39 17 -28 3 5 -1 19 -9 33 l-14 25 6 -30z"/>
<path d="M3600 2795 c30 -30 57 -55 59 -55 3 0 -19 25 -49 55 -30 30 -57 55
-59 55 -3 0 19 -25 49 -55z"/>
<path d="M2044 2788 l-29 -33 33 29 c30 28 37 36 29 36 -2 0 -16 -15 -33 -32z"/>
<path d="M4183 2805 c-3 -9 -3 -18 -1 -21 3 -3 8 4 11 16 6 23 -1 27 -10 5z"/>
<path d="M4209 2782 c12 -22 47 -213 56 -307 3 -33 8 -78 11 -100 l5 -40 -16
34 c-8 19 -17 32 -19 30 -1 -2 1 -58 5 -124 4 -66 8 -148 8 -182 l1 -63 -165
0 c-103 0 -165 -4 -165 -10 0 -6 62 -10 166 -10 l166 0 -6 -147 c-5 -145 -5
-147 9 -83 l14 65 -5 -115 c-5 -119 -35 -340 -58 -429 -7 -28 -11 -51 -9 -51
9 0 44 97 48 134 2 23 11 88 19 146 39 275 43 649 10 930 -9 69 -17 145 -19
170 -4 50 -40 156 -57 166 -7 4 -6 0 1 -14z m78 -924 c-3 -7 -5 -2 -5 12 0 14
2 19 5 13 2 -7 2 -19 0 -25z"/>
<path d="M1042 2745 c-17 -37 -14 -45 4 -12 9 16 14 31 11 33 -2 2 -9 -7 -15
-21z"/>
<path d="M1979 2713 c-13 -16 -12 -17 4 -4 16 13 21 21 13 21 -2 0 -10 -8 -17
-17z"/>
<path d="M4201 2704 c0 -11 3 -14 6 -6 3 7 2 16 -1 19 -3 4 -6 -2 -5 -13z"/>
<path d="M1002 2648 c-6 -18 -9 -34 -7 -37 3 -2 5 1 5 7 0 7 4 12 9 12 10 0
41 -155 42 -210 0 -33 1 -34 12 -12 8 18 6 49 -12 143 -13 66 -26 121 -30 124
-4 2 -12 -10 -19 -27z"/>
<path d="M4211 2654 c0 -11 3 -14 6 -6 3 7 2 16 -1 19 -3 4 -6 -2 -5 -13z"/>
<path d="M4222 2590 c0 -14 2 -19 5 -12 2 6 2 18 0 25 -3 6 -5 1 -5 -13z"/>
<path d="M981 2584 c0 -11 3 -14 6 -6 3 7 2 16 -1 19 -3 4 -6 -2 -5 -13z"/>
<path d="M4291 2580 c0 -8 4 -24 9 -35 5 -13 9 -14 9 -5 0 8 -4 24 -9 35 -5
13 -9 14 -9 5z"/>
<path d="M1870 2550 c-6 -11 -8 -20 -6 -20 3 0 10 9 16 20 6 11 8 20 6 20 -3
0 -10 -9 -16 -20z"/>
<path d="M4232 2525 c0 -16 2 -22 5 -12 2 9 2 23 0 30 -3 6 -5 -1 -5 -18z"/>
<path d="M1836 2485 c-9 -26 -7 -32 5 -12 6 10 9 21 6 23 -2 3 -7 -2 -11 -11z"/>
<path d="M1001 2474 c0 -11 3 -14 6 -6 3 7 2 16 -1 19 -3 4 -6 -2 -5 -13z"/>
<path d="M4321 2474 c0 -11 3 -14 6 -6 3 7 2 16 -1 19 -3 4 -6 -2 -5 -13z"/>
<path d="M4242 2435 c0 -16 2 -22 5 -12 2 9 2 23 0 30 -3 6 -5 -1 -5 -18z"/>
<path d="M4331 2434 c0 -11 3 -14 6 -6 3 7 2 16 -1 19 -3 4 -6 -2 -5 -13z"/>
<path d="M1011 2404 c0 -11 3 -14 6 -6 3 7 2 16 -1 19 -3 4 -6 -2 -5 -13z"/>
<path d="M4341 2394 c0 -11 3 -14 6 -6 3 7 2 16 -1 19 -3 4 -6 -2 -5 -13z"/>
<path d="M4352 2340 c0 -14 2 -19 5 -12 2 6 2 18 0 25 -3 6 -5 1 -5 -13z"/>
<path d="M1023 2310 c0 -25 2 -35 4 -22 2 12 2 32 0 45 -2 12 -4 2 -4 -23z"/>
<path d="M4362 2275 c0 -16 2 -22 5 -12 2 9 2 23 0 30 -3 6 -5 -1 -5 -18z"/>
<path d="M1353 2175 c0 -33 2 -45 4 -27 2 18 2 45 0 60 -2 15 -4 0 -4 -33z"/>
<path d="M4373 2195 c0 -22 2 -30 4 -17 2 12 2 30 0 40 -3 9 -5 -1 -4 -23z"/>
<path d="M1751 2194 c0 -11 3 -14 6 -6 3 7 2 16 -1 19 -3 4 -6 -2 -5 -13z"/>
<path d="M3912 2135 c0 -16 2 -22 5 -12 2 9 2 23 0 30 -3 6 -5 -1 -5 -18z"/>
<path d="M958 2123 c6 -2 18 -2 25 0 6 3 1 5 -13 5 -14 0 -19 -2 -12 -5z"/>
<path d="M1742 2110 c0 -14 2 -19 5 -12 2 6 2 18 0 25 -3 6 -5 1 -5 -13z"/>
<path d="M922 2095 c0 -16 2 -22 5 -12 2 9 2 23 0 30 -3 6 -5 -1 -5 -18z"/>
<path d="M1326 2074 c-3 -9 -6 -68 -5 -132 0 -64 2 -112 4 -107 4 10 12 255 9
255 -1 0 -5 -7 -8 -16z"/>
<path d="M4383 2025 c0 -38 2 -53 4 -32 2 20 2 52 0 70 -2 17 -4 1 -4 -38z"/>
<path d="M923 2005 c0 -33 2 -45 4 -27 2 18 2 45 0 60 -2 15 -4 0 -4 -33z"/>
<path d="M1360 2030 c0 -6 70 -10 190 -10 120 0 190 4 190 10 0 6 -70 10 -190
10 -120 0 -190 -4 -190 -10z"/>
<path d="M1353 1945 c0 -38 2 -53 4 -32 2 20 2 52 0 70 -2 17 -4 1 -4 -38z"/>
<path d="M1743 1960 c0 -30 2 -43 4 -27 2 15 2 39 0 55 -2 15 -4 2 -4 -28z"/>
<path d="M963 1943 c9 -2 23 -2 30 0 6 3 -1 5 -18 5 -16 0 -22 -2 -12 -5z"/>
<path d="M3912 1915 c0 -16 2 -22 5 -12 2 9 2 23 0 30 -3 6 -5 -1 -5 -18z"/>
<path d="M4373 1855 c0 -22 2 -30 4 -17 2 12 2 30 0 40 -3 9 -5 -1 -4 -23z"/>
<path d="M1752 1860 c0 -14 2 -19 5 -12 2 6 2 18 0 25 -3 6 -5 1 -5 -13z"/>
<path d="M3901 1844 c0 -11 3 -14 6 -6 3 7 2 16 -1 19 -3 4 -6 -2 -5 -13z"/>
<path d="M1761 1804 c0 -11 3 -14 6 -6 3 7 2 16 -1 19 -3 4 -6 -2 -5 -13z"/>
<path d="M1341 1795 c-2 -11 -4 -28 -6 -39 -2 -12 0 -15 6 -9 6 6 9 23 6 39
-3 19 -5 22 -6 9z"/>
<path d="M4362 1775 c0 -16 2 -22 5 -12 2 9 2 23 0 30 -3 6 -5 -1 -5 -18z"/>
<path d="M4352 1710 c0 -14 2 -19 5 -12 2 6 2 18 0 25 -3 6 -5 1 -5 -13z"/>
<path d="M1332 1695 c0 -16 2 -22 5 -12 2 9 2 23 0 30 -3 6 -5 -1 -5 -18z"/>
<path d="M4241 1694 c0 -11 3 -14 6 -6 3 7 2 16 -1 19 -3 4 -6 -2 -5 -13z"/>
<path d="M1012 1680 c0 -14 2 -19 5 -12 2 6 2 18 0 25 -3 6 -5 1 -5 -13z"/>
<path d="M4342 1660 c0 -14 2 -19 5 -12 2 6 2 18 0 25 -3 6 -5 1 -5 -13z"/>
<path d="M1286 1628 c-3 -13 -12 -60 -21 -105 -23 -121 -62 -249 -99 -325 -31
-66 -32 -98 -3 -98 9 0 9 2 -1 8 -9 7 -6 23 17 73 53 119 100 284 124 442 5
32 -11 37 -17 5z"/>
<path d="M4241 1634 c0 -11 3 -14 6 -6 3 7 2 16 -1 19 -3 4 -6 -2 -5 -13z"/>
<path d="M1042 1604 c-2 -20 -12 -75 -22 -121 -18 -76 -19 -87 -5 -111 15 -27
15 -27 10 -2 -3 14 5 75 18 135 13 61 22 116 20 123 -9 24 -19 12 -21 -24z"/>
<path d="M1322 1620 c0 -14 2 -19 5 -12 2 6 2 18 0 25 -3 6 -5 1 -5 -13z"/>
<path d="M4331 1614 c0 -11 3 -14 6 -6 3 7 2 16 -1 19 -3 4 -6 -2 -5 -13z"/>
<path d="M4321 1574 c0 -11 3 -14 6 -6 3 7 2 16 -1 19 -3 4 -6 -2 -5 -13z"/>
<path d="M1311 1554 c0 -11 3 -14 6 -6 3 7 2 16 -1 19 -3 4 -6 -2 -5 -13z"/>
<path d="M1301 1504 c0 -11 3 -14 6 -6 3 7 2 16 -1 19 -3 4 -6 -2 -5 -13z"/>
<path d="M4221 1484 c0 -11 3 -14 6 -6 3 7 2 16 -1 19 -3 4 -6 -2 -5 -13z"/>
<path d="M4291 1474 c0 -11 3 -14 6 -6 3 7 2 16 -1 19 -3 4 -6 -2 -5 -13z"/>
<path d="M4211 1414 c0 -11 3 -14 6 -6 3 7 2 16 -1 19 -3 4 -6 -2 -5 -13z"/>
<path d="M3699 1373 c-13 -16 -12 -17 4 -4 16 13 21 21 13 21 -2 0 -10 -8 -17
-17z"/>
<path d="M1950 1376 c0 -2 8 -10 18 -17 15 -13 16 -12 3 4 -13 16 -21 21 -21
13z"/>
<path d="M3669 1333 c-13 -16 -12 -17 4 -4 9 7 17 15 17 17 0 8 -8 3 -21 -13z"/>
<path d="M1980 1337 c0 -2 15 -16 33 -33 l32 -29 -29 33 c-28 30 -36 37 -36
29z"/>
<path d="M4191 1314 c0 -11 3 -14 6 -6 3 7 2 16 -1 19 -3 4 -6 -2 -5 -13z"/>
<path d="M1040 1316 c0 -10 80 -166 85 -166 5 0 -72 159 -81 169 -2 2 -4 1 -4
-3z"/>
<path d="M3599 1253 c-13 -16 -12 -17 4 -4 16 13 21 21 13 21 -2 0 -10 -8 -17
-17z"/>
<path d="M2070 1247 c0 -2 15 -16 33 -33 l32 -29 -29 33 c-28 30 -36 37 -36
29z"/>
<path d="M4174 1233 c2 -13 1 -23 -2 -23 -4 0 -12 -16 -18 -35 -14 -45 -9 -44
15 3 13 26 16 43 10 57 -9 18 -9 18 -5 -2z"/>
<path d="M1216 1225 c-9 -26 -7 -32 5 -12 6 10 9 21 6 23 -2 3 -7 -2 -11 -11z"/>
<path d="M3524 1188 l-19 -23 23 19 c21 18 27 26 19 26 -2 0 -12 -10 -23 -22z"/>
<path d="M2628 953 c7 -3 16 -2 19 1 4 3 -2 6 -13 5 -11 0 -14 -3 -6 -6z"/>
<path d="M3018 953 c7 -3 16 -2 19 1 4 3 -2 6 -13 5 -11 0 -14 -3 -6 -6z"/>
<path d="M2693 943 c9 -2 23 -2 30 0 6 3 -1 5 -18 5 -16 0 -22 -2 -12 -5z"/>
<path d="M2933 943 c9 -2 23 -2 30 0 6 3 -1 5 -18 5 -16 0 -22 -2 -12 -5z"/>
<path d="M2810 780 l0 -150 -147 -1 c-82 -1 -279 -2 -438 -3 l-290 -1 0 -25 0
-25 -110 0 c-60 -1 -125 2 -144 6 -28 6 -31 5 -20 -5 8 -7 32 -23 54 -35 38
-22 38 -22 15 -2 l-25 21 113 -1 c61 -1 113 -5 113 -10 1 -5 2 -16 2 -24 0
-80 -2 -86 -25 -80 -18 5 -17 2 5 -10 24 -14 72 -16 343 -15 179 0 313 -3 310
-8 -3 -5 29 -10 71 -11 42 -1 80 -4 85 -7 4 -3 8 -18 8 -34 0 -27 1 -28 38
-19 20 4 63 13 95 19 38 8 57 16 57 26 0 12 32 14 188 14 l189 0 101 50 c56
27 102 52 102 55 0 3 -36 -13 -80 -35 -79 -40 -80 -40 -192 -39 -71 0 -103 4
-87 9 42 12 184 78 251 116 59 34 65 35 156 33 68 -1 97 2 108 12 11 12 0 14
-79 12 -61 -2 -85 1 -72 7 12 5 -110 9 -321 9 -301 1 -343 3 -348 17 -3 8 -4
76 -2 150 4 112 2 134 -10 134 -11 0 -14 -26 -14 -150z m-242 -217 c-14 -28
-18 -50 -14 -85 l5 -46 -32 3 c-18 2 -155 4 -304 4 l-273 1 0 80 0 80 319 0
319 0 -20 -37z"/>
<path d="M1580 636 c0 -2 8 -10 18 -17 15 -13 16 -12 3 4 -13 16 -21 21 -21
13z"/>
<path d="M3580 559 c-22 -18 -22 -19 -3 -10 12 6 25 16 28 21 9 15 3 12 -25
-11z"/>
<path d="M3524 524 c-18 -14 -18 -15 4 -4 12 6 22 13 22 15 0 8 -5 6 -26 -11z"/>
<path d="M1760 516 c0 -3 9 -10 20 -16 11 -6 20 -8 20 -6 0 3 -9 10 -20 16
-11 6 -20 8 -20 6z"/>
<path d="M2815 320 l-90 -6 93 -2 c56 -1 92 2 92 8 0 6 -1 9 -2 8 -2 -1 -43
-5 -93 -8z"/>
</g>
</svg>
